<svg width="426" height="140" viewBox="0 0 426 140" fill="none" xmlns="http://www.w3.org/2000/svg">
<path d="M413.378 85.56L425.215 93.4508C421.373 99.1092 412.185 108.817 396.299 108.817C376.573 108.817 361.882 93.555 361.882 74.1392C361.882 53.4783 376.728 39.4617 394.638 39.4617C412.652 39.4617 421.477 53.7892 424.332 61.5242L425.89 65.47L379.48 84.6775C383.01 91.6342 388.513 95.1642 396.299 95.1642C404.087 95.1642 409.485 91.3225 413.378 85.56V85.56ZM376.988 73.05L407.98 60.175C406.267 55.8667 401.18 52.8042 395.105 52.8042C387.371 52.8042 376.625 59.6567 376.988 73.05Z" fill="#FF302F"/>
<path d="M339.508 4.10917H354.457V105.651H339.508V4.10834V4.10917Z" fill="#20B15A"/>
<path d="M315.939 42.1608H330.371V103.833C330.371 129.426 315.264 139.964 297.406 139.964C280.587 139.964 270.464 128.647 266.674 119.459L279.912 113.956C282.299 119.614 288.062 126.312 297.406 126.312C308.878 126.312 315.939 119.199 315.939 105.91V100.927H315.42C311.993 105.079 305.452 108.817 297.147 108.817C279.807 108.817 263.922 93.71 263.922 74.2433C263.922 54.6716 279.807 39.41 297.147 39.41C305.401 39.41 311.993 43.0958 315.42 47.145H315.939V42.1616V42.1608ZM316.977 74.2433C316.977 61.9916 308.827 53.0625 298.444 53.0625C287.957 53.0625 279.132 61.9916 279.132 74.2433C279.132 86.3383 287.957 95.1116 298.444 95.1116C308.827 95.1641 316.977 86.3383 316.977 74.2433H316.977Z" fill="#3686F7"/>
<path d="M181.848 73.9833C181.848 93.97 166.275 108.661 147.171 108.661C128.068 108.661 112.493 93.9183 112.493 73.9833C112.493 53.8933 128.068 39.2542 147.171 39.2542C166.275 39.2542 181.848 53.8933 181.848 73.9833ZM166.69 73.9833C166.69 61.525 157.657 52.9583 147.171 52.9583C136.685 52.9583 127.652 61.525 127.652 73.9833C127.652 86.3383 136.685 95.0083 147.171 95.0083C157.658 95.0083 166.69 86.3383 166.69 73.9833Z" fill="#FF302F"/>
<path d="M257.589 74.1392C257.589 94.1258 242.015 108.817 222.912 108.817C203.808 108.817 188.234 94.125 188.234 74.1392C188.234 54.0492 203.808 39.4617 222.912 39.4617C242.015 39.4617 257.589 53.9975 257.589 74.1392V74.1392ZM242.378 74.1392C242.378 61.6808 233.346 53.1142 222.859 53.1142C212.373 53.1142 203.34 61.6808 203.34 74.1392C203.34 86.4942 212.373 95.1642 222.859 95.1642C233.397 95.1642 242.378 86.4425 242.378 74.1392Z" fill="#FFBA40"/>
<path d="M55.4933 93.6067C33.7417 93.6067 16.715 76.06 16.715 54.3084C16.715 32.5575 33.7417 15.0109 55.4933 15.0109C67.2258 15.0109 75.7908 19.6309 82.1242 25.5492L92.5592 15.115C83.7342 6.65336 71.95 0.215027 55.4933 0.215027C25.6958 0.21586 0.621674 24.5117 0.621674 54.3084C0.621674 84.1067 25.6958 108.402 55.4933 108.402C71.5867 108.402 83.7342 103.107 93.2342 93.2434C102.993 83.4834 106.004 69.7784 106.004 58.6692C106.004 55.1909 105.589 51.6092 105.122 48.9617H55.4933V63.3934H90.8458C89.8075 72.4267 86.9525 78.6042 82.7475 82.8084C77.66 87.9484 69.6142 93.6067 55.4933 93.6067V93.6067Z" fill="#3686F7"/>
</svg>
