<svg width="36" height="36" viewBox="0 0 36 36" fill="none" xmlns="http://www.w3.org/2000/svg">
<path d="M25.0825 21.1155C23.443 21.1155 22.902 22.3625 22.7375 22.9415H27.1145C27.0735 22.62 26.945 22.055 26.536 21.643C26.1875 21.2935 25.7 21.1155 25.0825 21.1155V21.1155ZM13.831 23.4445H9.685V26.978H13.6045C14.3035 26.9605 15.1695 26.7355 15.1695 25.267C15.1695 23.4955 13.968 23.4445 13.831 23.4445V23.4445Z" fill="black"/>
<path d="M32.5175 0.036499H3.51752C2.76859 0.0366939 2.03946 0.276977 1.43715 0.722073C0.834836 1.16717 0.391079 1.79363 0.171021 2.5095V33.563C0.355269 34.1618 0.696653 34.7003 1.15964 35.1224C1.62262 35.5445 2.19028 35.8347 2.80352 35.963H33.231C33.8266 35.838 34.3793 35.5601 34.8348 35.1567C35.2904 34.7532 35.633 34.2381 35.829 33.662V2.4105C35.5941 1.71855 35.1484 1.11753 34.5545 0.69176C33.9606 0.265995 33.2483 0.0368567 32.5175 0.036499V0.036499ZM21.634 15.224C21.634 15.0855 21.747 14.973 21.885 14.973H28.1175C28.2545 14.973 28.368 15.0855 28.368 15.224V17.0845C28.3678 17.1509 28.3413 17.2144 28.2944 17.2613C28.2474 17.3083 28.1839 17.3347 28.1175 17.335H21.885C21.8185 17.335 21.7548 17.3086 21.7077 17.2617C21.6607 17.2147 21.6342 17.151 21.634 17.0845V15.224V15.224ZM18.987 25.5435C18.987 27.9185 17.7305 29.064 16.6745 29.6035C15.524 30.193 14.3315 30.239 13.9925 30.239H6.08102C6.01453 30.2385 5.95091 30.2118 5.90394 30.1647C5.85697 30.1177 5.83041 30.054 5.83002 29.9875V14.885C5.83002 14.7465 5.94402 14.6335 6.08102 14.6335H13.9415C16.7315 14.6335 18.465 16.2705 18.465 18.907C18.465 20.54 17.6695 21.3235 16.9695 21.6965C17.3586 21.8318 17.7089 22.0599 17.99 22.361C19.087 23.521 18.993 25.461 18.987 25.5435V25.5435ZM30.639 25.316C30.6314 25.3765 30.602 25.4321 30.5562 25.4724C30.5104 25.5126 30.4515 25.5347 30.3905 25.5345H22.824C22.8785 26.364 23.207 26.9625 23.8005 27.316C24.3255 27.6275 24.906 27.6615 25.129 27.6615C25.1755 27.6615 25.2045 27.6595 25.208 27.6585C26.0765 27.6585 26.693 27.467 27.0565 27.089C27.405 26.726 27.3955 26.3155 27.393 26.298C27.393 26.229 27.416 26.1625 27.465 26.1125C27.4883 26.088 27.5164 26.0684 27.5475 26.0551C27.5787 26.0418 27.6122 26.0349 27.646 26.035H30.3025C30.4415 26.035 30.5545 26.1475 30.5545 26.2865C30.5545 30.352 26.213 30.558 25.34 30.558C25.2005 30.558 25.121 30.553 25.121 30.553H25.1185C23.1585 30.553 21.625 29.9815 20.573 28.8555C18.9245 27.0885 19.075 24.6165 19.0825 24.5125C19.0825 24.468 19.0895 23.003 19.83 21.5165C20.5255 20.13 22.006 18.476 25.136 18.476C26.9295 18.476 28.326 19.027 29.2795 20.113C31.034 22.1135 30.659 25.186 30.639 25.316V25.316Z" fill="black"/>
<path d="M14.645 19.066C14.645 17.7615 13.8625 17.7465 13.83 17.7465H9.685V20.6135H13.556C14.1315 20.6135 14.645 20.4955 14.645 19.066V19.066Z" fill="black"/>
</svg>
