<svg width="42" height="42" viewBox="0 0 42 42" fill="none" xmlns="http://www.w3.org/2000/svg">
<path d="M21 15.8333C19.9781 15.8333 18.9792 16.1363 18.1296 16.704C17.2799 17.2718 16.6177 18.0787 16.2266 19.0228C15.8356 19.9668 15.7333 21.0057 15.9326 22.0079C16.132 23.0102 16.6241 23.9308 17.3466 24.6533C18.0692 25.3759 18.9898 25.868 19.9921 26.0673C20.9943 26.2667 22.0331 26.1644 22.9772 25.7733C23.9213 25.3823 24.7282 24.7201 25.2959 23.8704C25.8637 23.0208 26.1667 22.0218 26.1667 21C26.1667 20.3215 26.033 19.6496 25.7734 19.0228C25.5137 18.3959 25.1332 17.8263 24.6534 17.3466C24.1736 16.8668 23.6041 16.4862 22.9772 16.2266C22.3504 15.9669 21.6785 15.8333 21 15.8333V15.8333ZM41.6875 10.7291C41.6766 9.12029 41.3803 7.52615 40.8125 6.02079C40.3944 4.91925 39.7474 3.9189 38.9142 3.08576C38.0811 2.25262 37.0807 1.60562 35.9792 1.18746C34.4738 0.619676 32.8797 0.323419 31.2709 0.312459C28.5834 0.166626 27.7917 0.166626 21 0.166626C14.2084 0.166626 13.4167 0.166626 10.7292 0.312459C9.12035 0.323419 7.52621 0.619676 6.02085 1.18746C4.91931 1.60562 3.91897 2.25262 3.08582 3.08576C2.25268 3.9189 1.60568 4.91925 1.18752 6.02079C0.619737 7.52615 0.323481 9.12029 0.31252 10.7291C0.166687 13.4166 0.166687 14.2083 0.166687 21C0.166687 27.7916 0.166687 28.5833 0.31252 31.2708C0.334945 32.8853 0.6308 34.4843 1.18752 36C1.60383 37.0965 2.25029 38.091 3.08335 38.9166C3.91292 39.7548 4.91541 40.4018 6.02085 40.8125C7.52621 41.3802 9.12035 41.6765 10.7292 41.6875C13.4167 41.8333 14.2084 41.8333 21 41.8333C27.7917 41.8333 28.5834 41.8333 31.2709 41.6875C32.8797 41.6765 34.4738 41.3802 35.9792 40.8125C37.0846 40.4018 38.0871 39.7548 38.9167 38.9166C39.7498 38.091 40.3962 37.0965 40.8125 36C41.3798 34.4872 41.676 32.8863 41.6875 31.2708C41.8334 28.5833 41.8334 27.7916 41.8334 21C41.8334 14.2083 41.8334 13.4166 41.6875 10.7291V10.7291ZM36.3959 27.3958C36.329 28.6814 36.0546 29.9478 35.5834 31.1458C35.1789 32.1451 34.5777 33.053 33.8153 33.8153C33.053 34.5776 32.1452 35.1788 31.1459 35.5833C29.9365 36.0283 28.6631 36.2745 27.375 36.3125H14.625C13.337 36.2745 12.0635 36.0283 10.8542 35.5833C9.82107 35.1994 8.8881 34.5869 8.12502 33.7916C7.37016 33.0442 6.7872 32.1414 6.41669 31.1458C5.96993 29.9377 5.73045 28.6628 5.70835 27.375V14.625C5.73045 13.3371 5.96993 12.0622 6.41669 10.8541C6.80061 9.82101 7.41309 8.88804 8.20835 8.12496C8.95905 7.37417 9.86099 6.79182 10.8542 6.41663C12.0635 5.97164 13.337 5.7254 14.625 5.68746H27.375C28.6631 5.7254 29.9365 5.97164 31.1459 6.41663C32.179 6.80055 33.1119 7.41303 33.875 8.20829C34.6299 8.95569 35.2128 9.85857 35.5834 10.8541C36.0283 12.0635 36.2746 13.3369 36.3125 14.625V21C36.3125 25.2916 36.4584 25.7291 36.3959 27.375V27.3958ZM33.0625 11.8958C32.8145 11.2228 32.4234 10.6117 31.9162 10.1046C31.4091 9.59743 30.798 9.20634 30.125 8.95829C29.201 8.638 28.2278 8.48286 27.25 8.49996H14.75C13.7672 8.50956 12.7939 8.69295 11.875 9.04163C11.2124 9.27841 10.6077 9.65353 10.1012 10.142C9.59476 10.6306 9.19806 11.2213 8.93752 11.875C8.63497 12.8028 8.48716 13.7741 8.50002 14.75V27.25C8.52067 28.2316 8.70371 29.2031 9.04169 30.125C9.28974 30.7979 9.68082 31.409 10.188 31.9162C10.6951 32.4233 11.3062 32.8144 11.9792 33.0625C12.8681 33.3894 13.8035 33.5722 14.75 33.6041H27.25C28.2328 33.5945 29.2061 33.4111 30.125 33.0625C30.798 32.8144 31.4091 32.4233 31.9162 31.9162C32.4234 31.409 32.8145 30.7979 33.0625 30.125C33.4112 29.2061 33.5946 28.2327 33.6042 27.25V14.75C33.6048 13.7662 33.4211 12.791 33.0625 11.875V11.8958ZM21 28.9583C19.9559 28.9583 18.922 28.7523 17.9576 28.3521C16.9933 27.9519 16.1173 27.3654 15.38 26.6261C14.6426 25.8868 14.0584 25.0093 13.6607 24.0439C13.2631 23.0785 13.0598 22.0441 13.0625 21C13.0625 19.4251 13.5298 17.8856 14.4052 16.5764C15.2806 15.2672 16.5248 14.2472 17.9802 13.6454C19.4356 13.0437 21.0368 12.8873 22.5811 13.1961C24.1255 13.5049 25.5435 14.2649 26.6556 15.38C27.7678 16.4951 28.5241 17.915 28.8288 19.4602C29.1335 21.0053 28.9729 22.6061 28.3674 24.0599C27.7619 25.5138 26.7386 26.7552 25.4271 27.6272C24.1156 28.4992 22.5749 28.9624 21 28.9583V28.9583ZM29.3334 14.6041C28.8728 14.5554 28.4466 14.3379 28.1369 13.9936C27.8271 13.6494 27.6557 13.2027 27.6557 12.7395C27.6557 12.2764 27.8271 11.8297 28.1369 11.4854C28.4466 11.1412 28.8728 10.9237 29.3334 10.875C29.7939 10.9237 30.2201 11.1412 30.5298 11.4854C30.8396 11.8297 31.011 12.2764 31.011 12.7395C31.011 13.2027 30.8396 13.6494 30.5298 13.9936C30.2201 14.3379 29.7939 14.5554 29.3334 14.6041Z" fill="black"/>
</svg>
