<svg width="332" height="125" viewBox="0 0 332 125" fill="none" xmlns="http://www.w3.org/2000/svg">
<path d="M5.17875 79V23.08H24.2188V63.4H52.0588V79H5.17875ZM58.46 79V23.08H106.22V38.04H77.5V44.12H100.54V57.48H77.5V64.04H107.18V79H58.46ZM245.216 79L242.496 70.28H220.976L218.256 79H199.056L220.256 23.08H244.096L265.296 79H245.216ZM225.696 55.4H237.776L231.696 36.2L225.696 55.4ZM270.648 79V23.08H296.648C307.261 23.08 315.501 25.4 321.368 30.04C327.288 34.68 330.248 41.5067 330.248 50.52C330.248 60.7067 327.261 67.9867 321.288 72.36C315.314 76.7867 306.914 79 296.088 79H270.648ZM289.528 64.52H297.768C306.194 64.52 310.408 59.6667 310.408 49.96C310.408 41.6933 306.328 37.56 298.168 37.56H289.528V64.52Z" fill="white"/>
<path d="M32.3646 106L27.7246 120H24.9646L21.5046 109.64L17.9846 120H15.2046L10.5646 106H13.2646L16.7446 116.64L20.3646 106H22.7646L26.3046 116.7L29.8846 106H32.3646ZM67.7827 117.82V120H57.2827V106H67.5027V108.18H59.8827V111.82H66.6427V113.96H59.8827V117.82H67.7827ZM102.701 112.78C103.621 112.98 104.328 113.38 104.821 113.98C105.328 114.567 105.581 115.327 105.581 116.26C105.581 117.46 105.135 118.387 104.241 119.04C103.361 119.68 102.055 120 100.321 120H93.8812V106H99.9212C101.481 106 102.688 106.313 103.541 106.94C104.408 107.567 104.841 108.453 104.841 109.6C104.841 110.373 104.648 111.033 104.261 111.58C103.888 112.113 103.368 112.513 102.701 112.78ZM95.3612 107.22V112.3H99.8212C100.955 112.3 101.828 112.087 102.441 111.66C103.055 111.22 103.361 110.587 103.361 109.76C103.361 108.933 103.055 108.307 102.441 107.88C101.828 107.44 100.955 107.22 99.8212 107.22H95.3612ZM100.301 118.78C101.555 118.78 102.501 118.567 103.141 118.14C103.781 117.713 104.101 117.047 104.101 116.14C104.101 114.393 102.835 113.52 100.301 113.52H95.3612V118.78H100.301Z" fill="#FB1B3D"/>
<path d="M135.619 120.12C134.579 120.12 133.579 119.953 132.619 119.62C131.673 119.287 130.939 118.847 130.419 118.3L130.999 117.16C131.506 117.667 132.179 118.08 133.019 118.4C133.859 118.707 134.726 118.86 135.619 118.86C136.873 118.86 137.813 118.633 138.439 118.18C139.066 117.713 139.379 117.113 139.379 116.38C139.379 115.82 139.206 115.373 138.859 115.04C138.526 114.707 138.113 114.453 137.619 114.28C137.126 114.093 136.439 113.893 135.559 113.68C134.506 113.413 133.666 113.16 133.039 112.92C132.413 112.667 131.873 112.287 131.419 111.78C130.979 111.273 130.759 110.587 130.759 109.72C130.759 109.013 130.946 108.373 131.319 107.8C131.693 107.213 132.266 106.747 133.039 106.4C133.813 106.053 134.773 105.88 135.919 105.88C136.719 105.88 137.499 105.993 138.259 106.22C139.033 106.433 139.699 106.733 140.259 107.12L139.759 108.3C139.173 107.913 138.546 107.627 137.879 107.44C137.213 107.24 136.559 107.14 135.919 107.14C134.693 107.14 133.766 107.38 133.139 107.86C132.526 108.327 132.219 108.933 132.219 109.68C132.219 110.24 132.386 110.693 132.719 111.04C133.066 111.373 133.493 111.633 133.999 111.82C134.519 111.993 135.213 112.187 136.079 112.4C137.106 112.653 137.933 112.907 138.559 113.16C139.199 113.4 139.739 113.773 140.179 114.28C140.619 114.773 140.839 115.447 140.839 116.3C140.839 117.007 140.646 117.653 140.259 118.24C139.886 118.813 139.306 119.273 138.519 119.62C137.733 119.953 136.766 120.12 135.619 120.12ZM169.389 107.28H164.469V106H175.789V107.28H170.869V120H169.389V107.28ZM206.32 120.12C204.506 120.12 203.093 119.6 202.08 118.56C201.066 117.52 200.56 116.007 200.56 114.02V106H202.04V113.96C202.04 115.587 202.406 116.8 203.14 117.6C203.873 118.4 204.933 118.8 206.32 118.8C207.72 118.8 208.786 118.4 209.52 117.6C210.253 116.8 210.62 115.587 210.62 113.96V106H212.06V114.02C212.06 116.007 211.553 117.52 210.54 118.56C209.54 119.6 208.133 120.12 206.32 120.12ZM239.319 106H245.019C246.499 106 247.806 106.3 248.939 106.9C250.073 107.487 250.953 108.313 251.579 109.38C252.206 110.433 252.519 111.64 252.519 113C252.519 114.36 252.206 115.573 251.579 116.64C250.953 117.693 250.073 118.52 248.939 119.12C247.806 119.707 246.499 120 245.019 120H239.319V106ZM244.939 118.72C246.166 118.72 247.239 118.48 248.159 118C249.079 117.507 249.793 116.833 250.299 115.98C250.806 115.113 251.059 114.12 251.059 113C251.059 111.88 250.806 110.893 250.299 110.04C249.793 109.173 249.079 108.5 248.159 108.02C247.239 107.527 246.166 107.28 244.939 107.28H240.799V118.72H244.939ZM278.643 106H280.123V120H278.643V106ZM313.598 120.12C312.211 120.12 310.951 119.813 309.818 119.2C308.698 118.573 307.818 117.72 307.178 116.64C306.551 115.56 306.238 114.347 306.238 113C306.238 111.653 306.551 110.44 307.178 109.36C307.818 108.28 308.698 107.433 309.818 106.82C310.951 106.193 312.211 105.88 313.598 105.88C314.985 105.88 316.231 106.187 317.338 106.8C318.458 107.413 319.338 108.267 319.978 109.36C320.618 110.44 320.938 111.653 320.938 113C320.938 114.347 320.618 115.567 319.978 116.66C319.338 117.74 318.458 118.587 317.338 119.2C316.231 119.813 314.985 120.12 313.598 120.12ZM313.598 118.8C314.705 118.8 315.705 118.553 316.598 118.06C317.491 117.553 318.191 116.86 318.698 115.98C319.205 115.087 319.458 114.093 319.458 113C319.458 111.907 319.205 110.92 318.698 110.04C318.191 109.147 317.491 108.453 316.598 107.96C315.705 107.453 314.705 107.2 313.598 107.2C312.491 107.2 311.485 107.453 310.578 107.96C309.685 108.453 308.978 109.147 308.458 110.04C307.951 110.92 307.698 111.907 307.698 113C307.698 114.093 307.951 115.087 308.458 115.98C308.978 116.86 309.685 117.553 310.578 118.06C311.485 118.553 312.491 118.8 313.598 118.8Z" fill="white"/>
<path d="M144.645 73.1743L132 60.4541V25L154.868 53.6881M154.868 53.6881L181.233 25H144.645M154.868 53.6881V84L185 53.6881V33.6606" stroke="#FB1B3D" stroke-width="4"/>
</svg>
