<?xml version="1.0" encoding="utf-8"?><svg viewBox="0 0 426 140" xmlns="http://www.w3.org/2000/svg" xmlns:xlink="http://www.w3.org/1999/xlink"><style>:root>svg{display:none}:root>svg:target{display:block}</style><svg viewBox="0 0 36 36" id="beh" xmlns="http://www.w3.org/2000/svg"><path d="M25.082 21.116c-1.639 0-2.18 1.247-2.345 1.826h4.378c-.041-.322-.17-.887-.579-1.299-.349-.35-.836-.527-1.454-.527zm-11.251 2.329H9.685v3.533h3.92c.698-.018 1.564-.243 1.564-1.711 0-1.771-1.201-1.822-1.338-1.822z"/><path d="M32.517.036h-29A3.502 3.502 0 00.172 2.51v31.053a3.505 3.505 0 002.633 2.4H33.23a3.505 3.505 0 002.598-2.301V2.41A3.499 3.499 0 0032.517.036zM21.634 15.224c0-.139.113-.251.251-.251h6.232c.137 0 .251.112.251.251v1.86a.251.251 0 01-.25.251h-6.233a.251.251 0 01-.251-.25v-1.861zm-2.647 10.32c0 2.375-1.256 3.52-2.313 4.06-1.15.589-2.342.635-2.681.635H6.08a.253.253 0 01-.251-.252V14.886c0-.139.114-.252.251-.252h7.86c2.79 0 4.524 1.637 4.524 4.274 0 1.633-.796 2.416-1.495 2.79a2.53 2.53 0 011.02.664c1.097 1.16 1.003 3.1.997 3.183zm11.652-.228a.25.25 0 01-.248.219h-7.567c.054.829.383 1.427.976 1.781.526.312 1.106.346 1.329.346a.661.661 0 00.079-.003c.869 0 1.485-.192 1.849-.57.348-.363.338-.773.336-.791a.261.261 0 01.154-.243.25.25 0 01.099-.02h2.656c.14 0 .253.113.253.252 0 4.065-4.342 4.271-5.215 4.271a3.88 3.88 0 01-.219-.005h-.002c-1.96 0-3.494-.572-4.546-1.698-1.649-1.767-1.498-4.239-1.49-4.343 0-.044.007-1.509.747-2.995.696-1.387 2.176-3.041 5.306-3.041 1.794 0 3.19.551 4.143 1.637 1.755 2 1.38 5.073 1.36 5.203z"/><path d="M14.645 19.066c0-1.304-.782-1.32-.815-1.32H9.685v2.867h3.871c.576 0 1.089-.117 1.089-1.547z"/></svg><svg viewBox="0 0 50 50" id="face" xmlns="http://www.w3.org/2000/svg"><path d="M9.13 0A9.11 9.11 0 000 9.13v31.74A9.11 9.11 0 009.13 50h17.203V30.453h-5.169v-7.037h5.169v-6.013c0-4.724 3.054-9.06 10.089-9.06 2.848 0 4.955.273 4.955.273l-.166 6.572s-2.148-.02-4.492-.02c-2.537 0-2.944 1.168-2.944 3.109v5.139h7.638l-.333 7.037h-7.305V50h7.095A9.11 9.11 0 0050 40.87V9.13A9.11 9.11 0 0040.87 0H9.13z"/></svg><svg viewBox="0 0 426 140" id="google" xmlns="http://www.w3.org/2000/svg"><path d="M413.378 85.56l11.837 7.89c-3.842 5.66-13.03 15.367-28.916 15.367-19.726 0-34.417-15.262-34.417-34.678 0-20.66 14.846-34.677 32.756-34.677 18.014 0 26.839 14.327 29.694 22.062l1.558 3.946-46.41 19.207c3.53 6.957 9.033 10.487 16.819 10.487 7.788 0 13.186-3.841 17.079-9.604zm-36.39-12.51l30.992-12.875c-1.713-4.308-6.8-7.37-12.875-7.37-7.734 0-18.48 6.852-18.117 20.245zM339.508 4.11h14.949v101.54h-14.949V4.108v.001zM315.939 42.16h14.432v61.673c0 25.593-15.107 36.131-32.965 36.131-16.819 0-26.942-11.317-30.732-20.505l13.238-5.503c2.387 5.658 8.15 12.356 17.494 12.356 11.472 0 18.533-7.113 18.533-20.402v-4.983h-.519c-3.427 4.152-9.968 7.89-18.273 7.89-17.34 0-33.225-15.107-33.225-34.574 0-19.571 15.885-34.833 33.225-34.833 8.254 0 14.846 3.686 18.273 7.735h.519v-4.984zm1.038 32.083c0-12.251-8.15-21.18-18.533-21.18-10.487 0-19.312 8.929-19.312 21.18 0 12.095 8.825 20.869 19.312 20.869 10.383.052 18.533-8.774 18.533-20.869zM181.848 73.983c0 19.987-15.573 34.678-34.677 34.678-19.103 0-34.678-14.743-34.678-34.678 0-20.09 15.575-34.729 34.678-34.729 19.104 0 34.677 14.64 34.677 34.73zm-15.158 0c0-12.458-9.033-21.025-19.519-21.025-10.486 0-19.519 8.567-19.519 21.025 0 12.355 9.033 21.025 19.519 21.025 10.487 0 19.519-8.67 19.519-21.025zM257.589 74.14c0 19.986-15.574 34.677-34.677 34.677-19.104 0-34.678-14.692-34.678-34.678 0-20.09 15.574-34.677 34.678-34.677 19.103 0 34.677 14.535 34.677 34.677zm-15.211 0c0-12.46-9.032-21.026-19.519-21.026-10.486 0-19.519 8.567-19.519 21.025 0 12.355 9.033 21.025 19.519 21.025 10.538 0 19.519-8.722 19.519-21.025zM55.493 93.607c-21.751 0-38.778-17.547-38.778-39.299 0-21.75 17.027-39.297 38.778-39.297 11.733 0 20.298 4.62 26.631 10.538L92.56 15.115C83.734 6.653 71.95.215 55.493.215 25.696.215.622 24.512.622 54.308c0 29.799 25.074 54.094 54.871 54.094 16.094 0 28.241-5.295 37.741-15.159 9.759-9.76 12.77-23.465 12.77-34.574 0-3.478-.415-7.06-.882-9.707H55.493v14.431h35.353c-1.038 9.034-3.894 15.211-8.099 19.415-5.087 5.14-13.133 10.799-27.254 10.799z"/></svg><svg viewBox="0 0 42 42" id="inst" xmlns="http://www.w3.org/2000/svg"><path d="M21 15.833a5.166 5.166 0 100 10.333 5.166 5.166 0 000-10.333zm20.688-5.104a13.602 13.602 0 00-.876-4.708 8.332 8.332 0 00-4.833-4.834 13.604 13.604 0 00-4.708-.875C28.583.167 27.79.167 21 .167c-6.792 0-7.583 0-10.27.145a13.604 13.604 0 00-4.71.875 8.333 8.333 0 00-4.832 4.834 13.604 13.604 0 00-.875 4.708C.167 13.417.167 14.21.167 21c0 6.792 0 7.583.146 10.27.022 1.615.318 3.214.875 4.73a8.208 8.208 0 001.895 2.917 8.104 8.104 0 002.938 1.895c1.505.568 3.1.864 4.708.876 2.688.145 3.48.145 10.271.145 6.792 0 7.583 0 10.27-.145a13.607 13.607 0 004.71-.876 8.104 8.104 0 002.937-1.895A8.207 8.207 0 0040.812 36c.568-1.513.864-3.114.876-4.73.145-2.687.145-3.478.145-10.27s0-7.583-.145-10.27zm-5.292 16.667a11.94 11.94 0 01-.813 3.75 8.042 8.042 0 01-4.437 4.437 11.94 11.94 0 01-3.771.73h-12.75a11.939 11.939 0 01-3.77-.73 7.312 7.312 0 01-2.73-1.791 7.312 7.312 0 01-1.708-2.646 11.438 11.438 0 01-.709-3.771v-12.75c.022-1.288.262-2.563.709-3.77a7.313 7.313 0 011.791-2.73 7.479 7.479 0 012.646-1.708 11.937 11.937 0 013.771-.73h12.75c1.288.038 2.561.285 3.77.73a7.313 7.313 0 012.73 1.791 7.314 7.314 0 011.708 2.646 11.94 11.94 0 01.73 3.771V21c0 4.292.145 4.73.083 6.375v.02zm-3.334-15.5a4.956 4.956 0 00-2.937-2.938A8.333 8.333 0 0027.25 8.5h-12.5a8.333 8.333 0 00-2.875.542 4.96 4.96 0 00-2.937 2.833c-.303.928-.45 1.9-.438 2.875v12.5c.02.982.204 1.953.542 2.875a4.959 4.959 0 002.937 2.938c.89.326 1.825.51 2.771.541h12.5a8.335 8.335 0 002.875-.541 4.959 4.959 0 002.938-2.938 8.333 8.333 0 00.541-2.875v-12.5c0-.984-.183-1.959-.541-2.875v.02zM21 28.958A7.938 7.938 0 0113.062 21 7.958 7.958 0 1121 28.958zm8.333-14.354a1.874 1.874 0 010-3.729 1.875 1.875 0 010 3.73z"/></svg></svg>