<svg width="15" height="15" viewBox="0 0 15 15" fill="none" xmlns="http://www.w3.org/2000/svg">
<path d="M14.5097 5.91162C14.4616 5.7635 14.3336 5.65556 14.1795 5.63319L9.85072 5.00415L7.91477 1.0816C7.84588 0.941967 7.70365 0.853577 7.54795 0.853577C7.39223 0.853577 7.25003 0.941967 7.18111 1.0816L5.24508 5.00415L0.91636 5.63319C0.762297 5.65556 0.634252 5.7635 0.586143 5.91159C0.538007 6.05971 0.578152 6.22228 0.68967 6.33096L3.82188 9.38425L3.08257 13.6956C3.05623 13.8491 3.11934 14.0042 3.24531 14.0957C3.31657 14.1475 3.40098 14.1738 3.4858 14.1738C3.55093 14.1738 3.61627 14.1583 3.67611 14.1268L7.54793 12.0913L11.4196 14.1268C11.5574 14.1993 11.7244 14.1872 11.8504 14.0957C11.9764 14.0042 12.0395 13.849 12.0132 13.6955L11.2736 9.38425L14.4062 6.33094C14.5177 6.22228 14.5579 6.05971 14.5097 5.91162Z" fill="white"/>
</svg>
